<?xml version="1.0" encoding="utf-8"?>
<!-- Generator: Adobe Illustrator 25.0.0, SVG Export Plug-In . SVG Version: 6.00 Build 0)  -->
<svg version="1.1" id="Слой_1" xmlns="http://www.w3.org/2000/svg" xmlns:xlink="http://www.w3.org/1999/xlink" x="0px" y="0px"
	 viewBox="0 0 13 13" style="enable-background:new 0 0 13 13;" xml:space="preserve">
<style type="text/css">
	.st0{fill:#00D4FF;}
</style>
<path class="st0" d="M4.1,0.9C4.1,0.4,4.5,0,5,0h7.1C12.6,0,13,0.4,13,0.9c0,0.5-0.4,0.9-0.9,0.9H5C4.5,1.9,4.1,1.4,4.1,0.9z M0,0.9
	C0,0.4,0.4,0,0.9,0L2,0C2.6,0,3,0.4,3,0.9C3,1.4,2.6,1.9,2,1.9l-1.1,0C0.4,1.9,0,1.5,0,0.9z"/>
<path class="st0" d="M4.1,6.5c0-0.5,0.3-0.9,0.8-0.9h7.4C12.7,5.6,13,6,13,6.5c0,0.5-0.3,0.9-0.8,0.9H4.8C4.4,7.4,4.1,7,4.1,6.5z
	 M0,6.5C0,6,0.3,5.6,0.7,5.6l1.5,0C2.6,5.6,3,6,3,6.5C3,7,2.6,7.4,2.2,7.4l-1.5,0C0.3,7.4,0,7,0,6.5z"/>
<path class="st0" d="M4.1,12.1c0-0.5,0.3-0.9,0.8-0.9h7.4c0.4,0,0.8,0.4,0.8,0.9c0,0.5-0.3,0.9-0.8,0.9H4.8
	C4.4,13,4.1,12.6,4.1,12.1z M0,12.1c0-0.5,0.3-0.9,0.7-0.9l1.5,0c0.4,0,0.8,0.4,0.8,0.9C3,12.6,2.6,13,2.2,13l-1.5,0
	C0.3,13,0,12.6,0,12.1z"/>
</svg>
