<?xml version="1.0" encoding="utf-8"?>
<!-- Generator: Adobe Illustrator 25.0.0, SVG Export Plug-In . SVG Version: 6.00 Build 0)  -->
<svg version="1.1" id="Слой_1" xmlns="http://www.w3.org/2000/svg" xmlns:xlink="http://www.w3.org/1999/xlink" x="0px" y="0px"
	 viewBox="0 0 13 13" style="enable-background:new 0 0 13 13;" xml:space="preserve">
<style type="text/css">
	.st0{fill-rule:evenodd;clip-rule:evenodd;fill:#00D4FF;}
</style>
<path class="st0" d="M1,0C0.4,0,0,0.4,0,1v4c0,0.6,0.4,1,1,1h4c0.6,0,1-0.4,1-1V1c0-0.6-0.4-1-1-1H1z M1,7C0.4,7,0,7.4,0,8v4
	c0,0.6,0.4,1,1,1h4c0.6,0,1-0.4,1-1V8c0-0.6-0.4-1-1-1H1z M7,1c0-0.6,0.4-1,1-1h4c0.6,0,1,0.4,1,1v4c0,0.6-0.4,1-1,1H8
	C7.4,6,7,5.6,7,5V1z M8,7C7.4,7,7,7.4,7,8v4c0,0.6,0.4,1,1,1h4c0.6,0,1-0.4,1-1V8c0-0.6-0.4-1-1-1H8z"/>
</svg>
